<svg width="106" height="96" viewBox="0 0 106 96" fill="none" xmlns="http://www.w3.org/2000/svg">
<path d="M53.811 0.117459C37.355 1.54621 22.599 11.6835 15.2777 26.606C13.2377 30.7562 12.0364 34.4528 10.9484 39.805L10.8577 40.3266H5.66702C1.17902 40.3266 0.453688 40.3719 0.181688 40.6894C-0.0676454 40.9842 -0.0676454 41.143 0.227021 41.6646C0.657688 42.3903 12.3764 56.6551 12.875 57.0407C13.3964 57.4489 14.5977 57.4035 15.119 56.9273C15.5497 56.5871 18.1337 53.3441 22.871 47.2662C23.8004 46.0642 25.1604 44.3407 25.8857 43.4335C26.9057 42.1635 27.155 41.6646 27.1324 41.1203L27.0644 40.44L22.531 40.3719C20.0377 40.3492 17.9297 40.2359 17.8164 40.1225C17.431 39.7369 19.1537 33.9539 20.7177 30.4614C23.279 24.7464 28.6964 18.1696 33.9097 14.405C43.5884 7.46532 55.3977 5.01603 66.7764 7.57871C82.507 11.0939 94.7017 23.4084 98.0337 39.0792C101.502 55.5212 94.611 72.3714 80.5804 81.715C73.0324 86.7496 63.7617 89.1989 55.0577 88.4505C45.1977 87.5887 37.1964 84.1416 30.1697 77.6782C28.1297 75.7959 27.699 75.5917 26.135 75.7732C23.9364 76.0226 22.7124 78.3359 23.687 80.3769C24.367 81.8057 29.467 86.0239 33.411 88.4051C41.9337 93.5532 52.9724 96.0251 62.719 94.9592C73.4857 93.8026 83.1644 89.3123 90.8937 81.8737C97.875 75.1835 102.658 66.543 104.584 57.1087C107.848 41.0296 102.612 24.4062 90.7124 13.0896C81.7364 4.56246 69.7684 -0.154684 57.619 0.00406574C56.0324 0.0267443 54.3097 0.0721015 53.811 0.117459Z" fill="black"/>
<path d="M73.0777 26.2885C72.6697 26.4019 71.423 27.4451 70.0177 28.8738L67.6377 31.2551L71.6044 35.2239C73.7804 37.401 75.639 39.1699 75.7297 39.1472C75.843 39.1019 76.931 38.0587 78.1777 36.834C81.759 33.2508 81.759 32.7519 78.1097 29.0326C76.2963 27.2183 75.367 26.4246 74.7777 26.2658C73.871 26.0163 73.9844 26.0163 73.0777 26.2885Z" fill="black"/>
<path d="M53.4484 45.475L41.9564 56.9958L40.0071 62.8695C38.9418 66.1125 38.1031 68.8113 38.1711 68.8566C38.2164 68.902 40.8911 68.0629 44.1098 66.997L49.9578 65.0466L59.9311 55.0908C65.4164 49.6252 70.6071 44.4091 71.4911 43.5247L73.0778 41.9145L69.1111 37.9458C66.9351 35.7686 65.0991 33.977 65.0311 33.977C64.9631 33.977 59.7498 39.1477 53.4484 45.475Z" fill="black"/>
</svg>
