<svg width="30" height="30" viewBox="0 0 30 30" fill="none" xmlns="http://www.w3.org/2000/svg">
<path d="M26.4258 1.75781H17.4861C17.1233 0.734711 16.1458 0 15 0C13.8542 0 12.8767 0.734711 12.5139 1.75781H3.57422V30H26.4258V1.75781ZM10.6055 3.51562H14.1211V2.63672C14.1211 2.15218 14.5155 1.75781 15 1.75781C15.4845 1.75781 15.8789 2.15218 15.8789 2.63672V3.51562H19.3945V5.27344H10.6055V3.51562ZM24.668 28.2422H5.33203V3.51562H8.84766V7.03125H21.1523V3.51562H24.668V28.2422Z" fill="black"/>
<path d="M19.5454 9.4209L15.4525 13.514L8.54489 20.4216L6.68042 26.0148L12.2738 24.1504L23.2744 13.1498L19.5454 9.4209ZM11.3242 22.6141L9.45973 23.2355L10.0811 21.371L16.6954 14.7568L17.9384 15.9999L11.3242 22.6141ZM18.187 13.7626L17.9384 13.514L19.5454 11.9068L20.7882 13.1498L19.1813 14.7568L18.187 13.7626Z" fill="black"/>
</svg>
